<svg xmlns="http://www.w3.org/2000/svg" xmlns:xlink="http://www.w3.org/1999/xlink" width="1920" zoomAndPan="magnify" viewBox="0 0 1440 809.999993" height="1080" preserveAspectRatio="xMidYMid meet" version="1.2"><defs><clipPath id="cadc8b3706"><path d="M 893.460938 96.347656 L 1440 96.347656 L 1440 713.652344 L 893.460938 713.652344 Z M 893.460938 96.347656 "/></clipPath><clipPath id="287088790a"><path d="M 1202.117188 96.347656 C 1031.652344 96.347656 893.460938 234.535156 893.460938 405 C 893.460938 575.464844 1031.652344 713.652344 1202.117188 713.652344 C 1372.582031 713.652344 1510.769531 575.464844 1510.769531 405 C 1510.769531 234.535156 1372.582031 96.347656 1202.117188 96.347656 Z M 1202.117188 96.347656 "/></clipPath><clipPath id="9a2a340236"><path d="M 0 303.515625 L 228.375 303.515625 L 228.375 760.265625 L 0 760.265625 Z M 0 303.515625 "/></clipPath><clipPath id="12b70eb363"><path d="M 0 303.515625 C -126.128906 303.515625 -228.375 405.761719 -228.375 531.890625 C -228.375 658.019531 -126.128906 760.265625 0 760.265625 C 126.128906 760.265625 228.375 658.019531 228.375 531.890625 C 228.375 405.761719 126.128906 303.515625 0 303.515625 Z M 0 303.515625 "/></clipPath><clipPath id="6b6fa39c88"><path d="M 1372.644531 105.300781 L 1404.617188 105.300781 L 1404.617188 137.273438 L 1372.644531 137.273438 Z M 1372.644531 105.300781 "/></clipPath><clipPath id="6417df8e62"><path d="M 1388.628906 105.300781 C 1379.800781 105.300781 1372.644531 112.457031 1372.644531 121.285156 C 1372.644531 130.117188 1379.800781 137.273438 1388.628906 137.273438 C 1397.460938 137.273438 1404.617188 130.117188 1404.617188 121.285156 C 1404.617188 112.457031 1397.460938 105.300781 1388.628906 105.300781 Z M 1388.628906 105.300781 "/></clipPath><clipPath id="a6d5cffae9"><path d="M 131.398438 214.433594 L 163.371094 214.433594 L 163.371094 246.410156 L 131.398438 246.410156 Z M 131.398438 214.433594 "/></clipPath><clipPath id="5fdc7265d6"><path d="M 147.382812 214.433594 C 138.554688 214.433594 131.398438 221.59375 131.398438 230.421875 C 131.398438 239.25 138.554688 246.410156 147.382812 246.410156 C 156.210938 246.410156 163.371094 239.25 163.371094 230.421875 C 163.371094 221.59375 156.210938 214.433594 147.382812 214.433594 Z M 147.382812 214.433594 "/></clipPath><clipPath id="b53743e0e7"><path d="M 1372.644531 691.484375 L 1404.617188 691.484375 L 1404.617188 723.460938 L 1372.644531 723.460938 Z M 1372.644531 691.484375 "/></clipPath><clipPath id="1106bbc076"><path d="M 1388.628906 691.484375 C 1379.800781 691.484375 1372.644531 698.644531 1372.644531 707.472656 C 1372.644531 716.300781 1379.800781 723.460938 1388.628906 723.460938 C 1397.460938 723.460938 1404.617188 716.300781 1404.617188 707.472656 C 1404.617188 698.644531 1397.460938 691.484375 1388.628906 691.484375 Z M 1388.628906 691.484375 "/></clipPath><clipPath id="5ba3d8ab44"><path d="M 212.386719 659.511719 L 244.359375 659.511719 L 244.359375 691.484375 L 212.386719 691.484375 Z M 212.386719 659.511719 "/></clipPath><clipPath id="65e7697157"><path d="M 228.375 659.511719 C 219.542969 659.511719 212.386719 666.671875 212.386719 675.5 C 212.386719 684.328125 219.542969 691.484375 228.375 691.484375 C 237.203125 691.484375 244.359375 684.328125 244.359375 675.5 C 244.359375 666.671875 237.203125 659.511719 228.375 659.511719 Z M 228.375 659.511719 "/></clipPath><clipPath id="966eb32282"><path d="M 1277.148438 28.136719 L 1308.871094 28.136719 L 1308.871094 59.859375 L 1277.148438 59.859375 Z M 1277.148438 28.136719 "/></clipPath><clipPath id="ec13fbb8c0"><path d="M 1293.007812 28.136719 C 1284.25 28.136719 1277.148438 35.238281 1277.148438 44 C 1277.148438 52.757812 1284.25 59.859375 1293.007812 59.859375 C 1301.769531 59.859375 1308.871094 52.757812 1308.871094 44 C 1308.871094 35.238281 1301.769531 28.136719 1293.007812 28.136719 Z M 1293.007812 28.136719 "/></clipPath><clipPath id="e628d2b126"><path d="M 35.902344 137.273438 L 67.621094 137.273438 L 67.621094 168.996094 L 35.902344 168.996094 Z M 35.902344 137.273438 "/></clipPath><clipPath id="d1f39eb94a"><path d="M 51.761719 137.273438 C 43.003906 137.273438 35.902344 144.375 35.902344 153.132812 C 35.902344 161.894531 43.003906 168.996094 51.761719 168.996094 C 60.523438 168.996094 67.621094 161.894531 67.621094 153.132812 C 67.621094 144.375 60.523438 137.273438 51.761719 137.273438 Z M 51.761719 137.273438 "/></clipPath><clipPath id="e035b05616"><path d="M 1277.148438 744.402344 L 1308.871094 744.402344 L 1308.871094 776.125 L 1277.148438 776.125 Z M 1277.148438 744.402344 "/></clipPath><clipPath id="3729d9f2d6"><path d="M 1293.007812 744.402344 C 1284.25 744.402344 1277.148438 751.503906 1277.148438 760.265625 C 1277.148438 769.023438 1284.25 776.125 1293.007812 776.125 C 1301.769531 776.125 1308.871094 769.023438 1308.871094 760.265625 C 1308.871094 751.503906 1301.769531 744.402344 1293.007812 744.402344 Z M 1293.007812 744.402344 "/></clipPath><clipPath id="6a6c3271ec"><path d="M 147.507812 728.542969 L 179.230469 728.542969 L 179.230469 760.265625 L 147.507812 760.265625 Z M 147.507812 728.542969 "/></clipPath><clipPath id="d05a2d86a9"><path d="M 163.371094 728.542969 C 154.609375 728.542969 147.507812 735.644531 147.507812 744.402344 C 147.507812 753.164062 154.609375 760.265625 163.371094 760.265625 C 172.128906 760.265625 179.230469 753.164062 179.230469 744.402344 C 179.230469 735.644531 172.128906 728.542969 163.371094 728.542969 Z M 163.371094 728.542969 "/></clipPath></defs><g id="77a80b7d6d"><rect x="0" width="1440" y="0" height="809.999993" style="fill:#ffffff;fill-opacity:1;stroke:none;"/><rect x="0" width="1440" y="0" height="809.999993" style="fill:#ffffff;fill-opacity:1;stroke:none;"/><g clip-rule="nonzero" clip-path="url(#cadc8b3706)"><g clip-rule="nonzero" clip-path="url(#287088790a)"><path style=" stroke:none;fill-rule:nonzero;fill:#f3d263;fill-opacity:1;" d="M 893.460938 96.347656 L 1510.769531 96.347656 L 1510.769531 713.652344 L 893.460938 713.652344 Z M 893.460938 96.347656 "/></g></g><g clip-rule="nonzero" clip-path="url(#9a2a340236)"><g clip-rule="nonzero" clip-path="url(#12b70eb363)"><path style=" stroke:none;fill-rule:nonzero;fill:#f3d263;fill-opacity:1;" d="M -228.375 303.515625 L 228.375 303.515625 L 228.375 760.265625 L -228.375 760.265625 Z M -228.375 303.515625 "/></g></g><g clip-rule="nonzero" clip-path="url(#6b6fa39c88)"><g clip-rule="nonzero" clip-path="url(#6417df8e62)"><path style=" stroke:none;fill-rule:nonzero;fill:#f3d263;fill-opacity:1;" d="M 1372.644531 105.300781 L 1404.617188 105.300781 L 1404.617188 137.273438 L 1372.644531 137.273438 Z M 1372.644531 105.300781 "/></g></g><g clip-rule="nonzero" clip-path="url(#a6d5cffae9)"><g clip-rule="nonzero" clip-path="url(#5fdc7265d6)"><path style=" stroke:none;fill-rule:nonzero;fill:#f3d263;fill-opacity:1;" d="M 131.398438 214.433594 L 163.371094 214.433594 L 163.371094 246.410156 L 131.398438 246.410156 Z M 131.398438 214.433594 "/></g></g><g clip-rule="nonzero" clip-path="url(#b53743e0e7)"><g clip-rule="nonzero" clip-path="url(#1106bbc076)"><path style=" stroke:none;fill-rule:nonzero;fill:#f3d263;fill-opacity:1;" d="M 1372.644531 691.484375 L 1404.617188 691.484375 L 1404.617188 723.460938 L 1372.644531 723.460938 Z M 1372.644531 691.484375 "/></g></g><g clip-rule="nonzero" clip-path="url(#5ba3d8ab44)"><g clip-rule="nonzero" clip-path="url(#65e7697157)"><path style=" stroke:none;fill-rule:nonzero;fill:#f3d263;fill-opacity:1;" d="M 212.386719 659.511719 L 244.359375 659.511719 L 244.359375 691.484375 L 212.386719 691.484375 Z M 212.386719 659.511719 "/></g></g><g clip-rule="nonzero" clip-path="url(#966eb32282)"><g clip-rule="nonzero" clip-path="url(#ec13fbb8c0)"><path style=" stroke:none;fill-rule:nonzero;fill:#f3d263;fill-opacity:1;" d="M 1277.148438 28.136719 L 1308.871094 28.136719 L 1308.871094 59.859375 L 1277.148438 59.859375 Z M 1277.148438 28.136719 "/></g></g><g clip-rule="nonzero" clip-path="url(#e628d2b126)"><g clip-rule="nonzero" clip-path="url(#d1f39eb94a)"><path style=" stroke:none;fill-rule:nonzero;fill:#f3d263;fill-opacity:1;" d="M 35.902344 137.273438 L 67.621094 137.273438 L 67.621094 168.996094 L 35.902344 168.996094 Z M 35.902344 137.273438 "/></g></g><g clip-rule="nonzero" clip-path="url(#e035b05616)"><g clip-rule="nonzero" clip-path="url(#3729d9f2d6)"><path style=" stroke:none;fill-rule:nonzero;fill:#f3d263;fill-opacity:1;" d="M 1277.148438 744.402344 L 1308.871094 744.402344 L 1308.871094 776.125 L 1277.148438 776.125 Z M 1277.148438 744.402344 "/></g></g><g clip-rule="nonzero" clip-path="url(#6a6c3271ec)"><g clip-rule="nonzero" clip-path="url(#d05a2d86a9)"><path style=" stroke:none;fill-rule:nonzero;fill:#f3d263;fill-opacity:1;" d="M 147.507812 728.542969 L 179.230469 728.542969 L 179.230469 760.265625 L 147.507812 760.265625 Z M 147.507812 728.542969 "/></g></g></g></svg>