<svg xmlns="http://www.w3.org/2000/svg" xmlns:xlink="http://www.w3.org/1999/xlink" width="1512" zoomAndPan="magnify" viewBox="0 0 1134 225" height="300" preserveAspectRatio="xMidYMid meet" version="1.2"><defs><clipPath id="396d2f7d39"><path d="M 87 0 L 207 0 L 207 80 L 87 80 Z M 87 0 "/></clipPath><clipPath id="6e0cab677c"><path d="M 157.519531 -65.402344 L 230.671875 2.386719 L 136.929688 103.542969 L 63.777344 35.75 Z M 157.519531 -65.402344 "/></clipPath><clipPath id="6ec13717f3"><path d="M 194.097656 -31.507812 C 173.898438 -50.226562 136.546875 -42.773438 110.675781 -14.855469 C 84.804688 13.0625 80.210938 50.867188 100.410156 69.585938 C 120.609375 88.308594 157.957031 80.851562 183.828125 52.933594 C 209.699219 25.019531 214.296875 -12.789062 194.097656 -31.507812 Z M 194.097656 -31.507812 "/></clipPath><clipPath id="06c5f342ae"><path d="M 78 0 L 204 0 L 204 74 L 78 74 Z M 78 0 "/></clipPath><clipPath id="abc410dfe7"><path d="M 149.035156 -79.4375 L 229.074219 -5.261719 L 132.882812 98.539062 L 52.84375 24.363281 Z M 149.035156 -79.4375 "/></clipPath><clipPath id="5e66d4b77d"><path d="M 189.054688 -42.351562 C 166.953125 -62.832031 127.558594 -56.261719 101.066406 -27.671875 C 74.574219 0.914062 71.011719 40.695312 93.117188 61.175781 C 115.21875 81.660156 154.613281 75.089844 181.105469 46.5 C 207.597656 17.914062 211.160156 -21.867188 189.054688 -42.351562 Z M 189.054688 -42.351562 "/></clipPath><clipPath id="26bc7bb453"><path d="M 909 0 L 1134 0 L 1134 206 L 909 206 Z M 909 0 "/></clipPath><clipPath id="2287ff9bed"><path d="M 880.144531 93.574219 L 1009.144531 -183.078125 L 1298.03125 -48.371094 L 1169.03125 228.28125 Z M 880.144531 93.574219 "/></clipPath><clipPath id="3bcf0b778a"><path d="M 1168.796875 228.171875 L 1297.796875 -48.480469 L 1008.910156 -183.1875 L 879.910156 93.464844 Z M 1168.796875 228.171875 "/></clipPath><clipPath id="12c49bc9fa"><path d="M 1168.8125 228.140625 L 1297.789062 -48.460938 L 1009.234375 -183.011719 L 880.257812 93.585938 Z M 1168.8125 228.140625 "/></clipPath><clipPath id="005cd10319"><path d="M 784 141 L 1072 141 L 1072 225 L 784 225 Z M 784 141 "/></clipPath><clipPath id="84b61cc8df"><path d="M 777.640625 142.695312 L 1064.753906 133.84375 L 1073.972656 432.953125 L 786.859375 441.804688 Z M 777.640625 142.695312 "/></clipPath><clipPath id="ef92681d79"><path d="M 777.640625 142.695312 L 1064.753906 133.84375 L 1073.972656 432.953125 L 786.859375 441.804688 Z M 777.640625 142.695312 "/></clipPath><clipPath id="7d8ec1e1b4"><path d="M 777.675781 142.695312 L 1064.394531 133.855469 L 1073.613281 432.964844 L 786.898438 441.800781 Z M 777.675781 142.695312 "/></clipPath><clipPath id="c79f08a1d6"><path d="M 692.570312 202.5 L 1134 202.5 L 1134 225 L 692.570312 225 Z M 692.570312 202.5 "/></clipPath><clipPath id="94752dd4da"><path d="M 1178.285156 202.5 L 728.792969 202.5 L 692.570312 231.863281 L 728.792969 261.222656 L 1178.285156 261.222656 L 1214.507812 231.863281 Z M 1178.285156 202.5 "/></clipPath><clipPath id="79b6509f80"><path d="M 945.355469 53.230469 L 1011.355469 53.230469 L 1011.355469 103 L 945.355469 103 Z M 945.355469 53.230469 "/></clipPath><clipPath id="4a890079be"><path d="M 990 0 L 1100 0 L 1100 56 L 990 56 Z M 990 0 "/></clipPath><clipPath id="b1bcc1a22a"><path d="M 979.503906 32.859375 L 1032.296875 -65.632812 L 1111.621094 -23.109375 L 1058.824219 75.382812 Z M 979.503906 32.859375 "/></clipPath><clipPath id="2044dea0e5"><path d="M 979.503906 32.859375 L 1032.296875 -65.632812 L 1111.621094 -23.109375 L 1058.824219 75.382812 Z M 979.503906 32.859375 "/></clipPath><clipPath id="b84ac2a108"><path d="M 1114 0 L 1134 0 L 1134 84 L 1114 84 Z M 1114 0 "/></clipPath><clipPath id="b1718c6f55"><path d="M 1103.4375 60.960938 L 1156.234375 -37.53125 L 1235.554688 4.988281 L 1182.757812 103.480469 Z M 1103.4375 60.960938 "/></clipPath><clipPath id="d34e946579"><path d="M 1103.4375 60.960938 L 1156.234375 -37.53125 L 1235.554688 4.988281 L 1182.757812 103.480469 Z M 1103.4375 60.960938 "/></clipPath><clipPath id="512118f61a"><path d="M 1068 66 L 1107 66 L 1107 110 L 1068 110 Z M 1068 66 "/></clipPath><clipPath id="433315194f"><path d="M 1063.1875 113.402344 L 1058.433594 62.625 L 1103.984375 58.359375 L 1108.738281 109.136719 Z M 1063.1875 113.402344 "/></clipPath><clipPath id="7c85f1c9e4"><path d="M 1104.085938 58.175781 L 1108.839844 108.953125 L 1063.289062 113.214844 L 1058.535156 62.4375 Z M 1104.085938 58.175781 "/></clipPath></defs><g id="5d2cc1572f"><rect x="0" width="1134" y="0" height="225" style="fill:#ffffff;fill-opacity:1;stroke:none;"/><rect x="0" width="1134" y="0" height="225" style="fill:#0d0251;fill-opacity:1;stroke:none;"/><g clip-rule="nonzero" clip-path="url(#396d2f7d39)"><g clip-rule="nonzero" clip-path="url(#6e0cab677c)"><g clip-rule="nonzero" clip-path="url(#6ec13717f3)"><path style=" stroke:none;fill-rule:nonzero;fill:#21137a;fill-opacity:1;" d="M 157.519531 -65.402344 L 230.671875 2.386719 L 136.929688 103.542969 L 63.777344 35.75 Z M 157.519531 -65.402344 "/></g></g></g><g clip-rule="nonzero" clip-path="url(#06c5f342ae)"><g clip-rule="nonzero" clip-path="url(#abc410dfe7)"><g clip-rule="nonzero" clip-path="url(#5e66d4b77d)"><path style=" stroke:none;fill-rule:nonzero;fill:#0c228a;fill-opacity:1;" d="M 149.035156 -79.4375 L 229.074219 -5.261719 L 133.171875 98.226562 L 53.132812 24.050781 Z M 149.035156 -79.4375 "/></g></g></g><path style=" stroke:none;fill-rule:nonzero;fill:#5170ff;fill-opacity:1;" d="M 268.648438 224.929688 C 277.304688 204.269531 284.636719 184.128906 279.371094 164.777344 C 274.761719 147.847656 260.113281 132.832031 239.171875 123.585938 C 225.492188 117.546875 210.648438 114.207031 196.285156 110.976562 C 187.585938 109.019531 178.582031 106.988281 169.925781 104.386719 C 150.242188 98.453125 124.675781 86.394531 114.667969 62.582031 C 110.140625 51.808594 109.378906 39.714844 108.640625 28.027344 C 107.816406 14.886719 106.960938 1.289062 100.714844 -10.398438 C 92.8125 -25.203125 75.9375 -36.222656 55.558594 -39.875 C 37.132812 -43.175781 18.347656 -40.835938 0.179688 -38.570312 L 0.253906 -37.9375 C 18.375 -40.195312 37.113281 -42.53125 55.441406 -39.246094 C 75.621094 -35.632812 92.332031 -24.738281 100.144531 -10.105469 C 106.320312 1.46875 107.171875 14.988281 107.996094 28.066406 C 108.738281 39.804688 109.5 51.949219 114.074219 62.824219 C 124.175781 86.867188 149.921875 99.023438 169.734375 104.992188 C 178.410156 107.605469 187.417969 109.632812 196.132812 111.597656 C 210.464844 114.820312 225.277344 118.152344 238.898438 124.167969 C 259.65625 133.335938 274.179688 148.199219 278.738281 164.941406 C 283.945312 184.097656 276.652344 204.128906 268.039062 224.679688 L 268.628906 224.929688 Z M 268.648438 224.929688 "/><path style=" stroke:none;fill-rule:nonzero;fill:#5170ff;fill-opacity:1;" d="M 238.898438 224.617188 C 245.863281 208.453125 252.855469 189.707031 247.585938 171.703125 C 245.832031 165.695312 242.710938 160.015625 238.300781 154.8125 C 231.796875 147.136719 222.609375 140.589844 211.738281 135.890625 C 199.675781 130.667969 186.601562 127.78125 173.957031 125 L 171.585938 124.476562 C 164.820312 122.976562 157.636719 121.347656 150.703125 119.285156 C 136.765625 115.160156 117.835938 107.035156 106.8125 91.757812 C 104.804688 88.964844 103.101562 86 101.75 82.933594 C 97.585938 73.433594 96.714844 62.730469 95.878906 52.378906 C 94.949219 40.96875 93.996094 29.179688 88.621094 18.949219 C 86.925781 15.71875 84.785156 12.660156 82.242188 9.855469 C 74.425781 1.21875 62.84375 -5.078125 49.628906 -7.867188 C 33.320312 -11.339844 16.03125 -9.59375 1.105469 -7.679688 L 1.1875 -7.046875 C 16.0625 -8.953125 33.285156 -10.695312 49.5 -7.238281 C 62.582031 -4.476562 74.042969 1.75 81.769531 10.292969 C 84.273438 13.054688 86.382812 16.070312 88.054688 19.25 C 93.363281 29.363281 94.316406 41.089844 95.238281 52.429688 C 96.082031 62.832031 96.960938 73.585938 101.164062 83.1875 C 102.523438 86.296875 104.253906 89.304688 106.289062 92.132812 C 117.417969 107.558594 136.484375 115.75 150.515625 119.90625 C 157.476562 121.96875 164.675781 123.605469 171.445312 125.101562 L 173.816406 125.625 C 186.433594 128.410156 199.472656 131.289062 211.480469 136.484375 C 222.261719 141.148438 231.367188 147.628906 237.808594 155.230469 C 242.152344 160.359375 245.238281 165.964844 246.964844 171.882812 C 252.179688 189.683594 245.230469 208.300781 238.308594 224.359375 Z M 238.898438 224.617188 "/><path style=" stroke:none;fill-rule:nonzero;fill:#5170ff;fill-opacity:1;" d="M 209.148438 224.300781 C 214.925781 211.390625 220.898438 194.527344 215.792969 178.632812 C 214.148438 173.484375 211.355469 168.632812 207.484375 164.226562 C 201.746094 157.707031 193.726562 152.164062 184.304688 148.203125 C 173.855469 143.804688 162.558594 141.378906 151.621094 139.03125 L 149.53125 138.582031 C 143.703125 137.328125 137.507812 135.953125 131.464844 134.199219 C 114.195312 129.203125 101.003906 121.117188 93.3125 110.816406 C 91.539062 108.441406 90.03125 105.910156 88.816406 103.292969 C 85 95.050781 84.023438 85.714844 83.070312 76.695312 C 82.050781 67.046875 81.003906 57.066406 76.503906 48.3125 C 75.058594 45.503906 73.253906 42.832031 71.128906 40.375 C 64.558594 32.753906 54.808594 26.996094 43.675781 24.15625 C 29.0625 20.367188 13.734375 21.667969 2.015625 23.214844 L 2.097656 23.847656 C 13.761719 22.300781 29.007812 21.007812 43.515625 24.769531 C 54.523438 27.578125 64.15625 33.261719 70.644531 40.785156 C 72.738281 43.207031 74.515625 45.839844 75.9375 48.601562 C 80.375 57.246094 81.417969 67.164062 82.429688 76.753906 C 83.382812 85.832031 84.375 95.21875 88.230469 103.554688 C 89.460938 106.214844 90.996094 108.789062 92.792969 111.191406 C 100.566406 121.609375 113.875 129.773438 131.277344 134.8125 C 137.34375 136.574219 143.554688 137.949219 149.390625 139.203125 L 151.480469 139.652344 C 162.382812 141.992188 173.65625 144.410156 184.046875 148.789062 C 193.382812 152.714844 201.320312 158.199219 206.996094 164.640625 C 210.808594 168.980469 213.5625 173.75 215.179688 178.820312 C 220.222656 194.511719 214.289062 211.222656 208.558594 224.03125 L 209.140625 224.296875 Z M 209.148438 224.300781 "/><path style=" stroke:none;fill-rule:nonzero;fill:#5170ff;fill-opacity:1;" d="M 179.394531 223.988281 C 186.332031 209.234375 187.878906 196.304688 184.003906 185.550781 C 182.46875 181.25 179.992188 177.238281 176.65625 173.628906 C 171.691406 168.273438 164.847656 163.738281 156.863281 160.507812 C 148.035156 156.933594 138.5 154.960938 129.289062 153.054688 L 127.484375 152.683594 C 122.59375 151.667969 117.386719 150.558594 112.230469 149.105469 C 97.472656 144.96875 86.570312 138.492188 79.824219 129.867188 C 78.296875 127.910156 76.972656 125.8125 75.890625 123.636719 C 72.410156 116.636719 71.304688 108.648438 70.234375 100.910156 C 69.148438 93.042969 68.015625 84.898438 64.40625 77.660156 C 63.214844 75.273438 61.746094 72.992188 60.035156 70.867188 C 54.738281 64.304688 46.824219 59.082031 37.753906 56.160156 C 27.683594 52.921875 16.292969 52.242188 2.933594 54.097656 L 3.023438 54.730469 C 16.28125 52.894531 27.582031 53.5625 37.554688 56.765625 C 46.511719 59.644531 54.316406 64.796875 59.539062 71.265625 C 61.21875 73.347656 62.660156 75.59375 63.832031 77.941406 C 67.394531 85.089844 68.515625 93.175781 69.59375 100.996094 C 70.671875 108.773438 71.789062 116.824219 75.316406 123.914062 C 76.414062 126.125 77.757812 128.257812 79.3125 130.253906 C 86.140625 138.992188 97.152344 145.539062 112.050781 149.714844 C 117.226562 151.167969 122.449219 152.28125 127.347656 153.296875 L 129.160156 153.667969 C 138.347656 155.570312 147.847656 157.535156 156.625 161.089844 C 164.519531 164.28125 171.289062 168.769531 176.191406 174.050781 C 179.464844 177.597656 181.890625 181.53125 183.402344 185.753906 C 187.222656 196.335938 185.671875 209.105469 178.8125 223.699219 L 179.394531 223.976562 Z M 179.394531 223.988281 "/><path style=" stroke:none;fill-rule:nonzero;fill:#5170ff;fill-opacity:1;" d="M 149.644531 223.675781 C 155.15625 212.726562 156.070312 201.648438 152.210938 192.464844 C 150.777344 189.011719 148.628906 185.835938 145.839844 183.027344 C 141.585938 178.78125 136.070312 175.34375 129.429688 172.8125 C 122.210938 170.054688 114.457031 168.539062 106.953125 167.074219 L 105.429688 166.777344 C 101.648438 166.035156 97.261719 165.152344 92.992188 164.007812 C 80.976562 160.796875 72.007812 155.714844 66.332031 148.910156 C 65.046875 147.367188 63.914062 145.710938 62.960938 143.976562 C 59.769531 138.171875 58.515625 131.457031 57.296875 124.953125 C 56.171875 118.914062 55 112.675781 52.300781 107.015625 C 51.359375 105.050781 50.230469 103.152344 48.9375 101.378906 C 44.878906 95.820312 38.800781 91.128906 31.820312 88.179688 C 23.304688 84.578125 13.894531 83.507812 3.851562 84.988281 L 3.945312 85.621094 C 13.871094 84.15625 23.171875 85.210938 31.578125 88.769531 C 38.449219 91.671875 44.433594 96.285156 48.425781 101.757812 C 49.699219 103.503906 50.804688 105.363281 51.726562 107.296875 C 54.394531 112.882812 55.550781 119.082031 56.671875 125.082031 C 57.894531 131.628906 59.160156 138.402344 62.398438 144.289062 C 63.371094 146.054688 64.527344 147.75 65.832031 149.324219 C 71.589844 156.234375 80.675781 161.382812 92.820312 164.636719 C 97.101562 165.78125 101.507812 166.667969 105.296875 167.410156 L 106.816406 167.707031 C 114.296875 169.164062 122.027344 170.675781 129.191406 173.414062 C 135.742188 175.914062 141.1875 179.304688 145.378906 183.488281 C 148.117188 186.234375 150.214844 189.34375 151.617188 192.722656 C 155.398438 201.730469 154.496094 212.621094 149.070312 223.394531 L 149.640625 223.679688 Z M 149.644531 223.675781 "/><path style=" stroke:none;fill-rule:nonzero;fill:#5170ff;fill-opacity:1;" d="M 119.890625 223.367188 C 124.105469 215.824219 124.296875 206.855469 120.414062 199.375 C 119.078125 196.773438 117.253906 194.4375 115.007812 192.433594 C 111.558594 189.375 107.175781 186.914062 101.988281 185.121094 C 96.382812 183.175781 90.394531 182.121094 84.597656 181.097656 L 83.375 180.878906 C 80.285156 180.328125 76.976562 179.714844 73.753906 178.914062 C 64.335938 176.59375 57.496094 173.003906 52.832031 167.957031 C 51.796875 166.828125 50.847656 165.605469 50.023438 164.316406 C 46.996094 159.585938 45.589844 154.210938 44.09375 148.523438 C 43.03125 144.476562 41.929688 140.289062 40.195312 136.382812 C 39.503906 134.832031 38.71875 133.324219 37.84375 131.902344 C 35 127.289062 30.765625 123.136719 25.910156 120.214844 C 19.277344 116.214844 11.960938 114.71875 4.765625 115.882812 L 4.867188 116.515625 C 11.910156 115.378906 19.078125 116.84375 25.585938 120.765625 C 30.351562 123.636719 34.507812 127.710938 37.296875 132.234375 C 38.15625 133.636719 38.9375 135.113281 39.613281 136.644531 C 41.328125 140.507812 42.421875 144.667969 43.480469 148.691406 C 44.917969 154.179688 46.410156 159.855469 49.488281 164.667969 C 50.332031 165.984375 51.296875 167.238281 52.367188 168.398438 C 57.113281 173.539062 64.0625 177.1875 73.601562 179.542969 C 76.84375 180.339844 80.160156 180.960938 83.261719 181.511719 L 84.484375 181.730469 C 90.253906 182.746094 96.222656 183.804688 101.777344 185.730469 C 106.890625 187.496094 111.195312 189.914062 114.585938 192.914062 C 116.773438 194.863281 118.546875 197.136719 119.851562 199.675781 C 123.636719 206.96875 123.445312 215.710938 119.332031 223.0625 L 119.890625 223.375 Z M 119.890625 223.367188 "/><path style=" stroke:none;fill-rule:nonzero;fill:#5170ff;fill-opacity:1;" d="M 90.125 223.074219 C 94.734375 216.164062 90.757812 206.507812 84.164062 201.824219 C 77.835938 197.339844 69.894531 196.203125 62.21875 195.109375 L 61.316406 194.980469 C 53.410156 193.847656 45.199219 192.292969 39.328125 186.996094 C 34.246094 182.402344 31.785156 175.710938 29.402344 169.242188 C 28.570312 166.984375 27.714844 164.652344 26.761719 162.441406 C 22.859375 153.40625 14.824219 145.058594 5.679688 146.777344 L 5.796875 147.40625 C 14.585938 145.761719 22.367188 153.894531 26.171875 162.691406 C 27.121094 164.882812 27.976562 167.214844 28.800781 169.457031 C 31.207031 176.003906 33.695312 182.773438 38.898438 187.46875 C 44.898438 192.886719 53.214844 194.46875 61.21875 195.613281 L 62.121094 195.742188 C 69.722656 196.828125 77.585938 197.949219 83.785156 202.34375 C 90.011719 206.757812 93.925781 216.214844 89.589844 222.714844 L 90.121094 223.066406 Z M 90.125 223.074219 "/><g clip-rule="nonzero" clip-path="url(#26bc7bb453)"><g clip-rule="nonzero" clip-path="url(#2287ff9bed)"><g clip-rule="nonzero" clip-path="url(#3bcf0b778a)"><g clip-rule="nonzero" clip-path="url(#12c49bc9fa)"><path style=" stroke:none;fill-rule:nonzero;fill:#0c228a;fill-opacity:1;" d="M 1100.320312 -135.113281 C 1125.308594 -103.507812 1135.25 -92.617188 1188.820312 -82.464844 C 1221.117188 -75.117188 1252.765625 -41.800781 1238.21875 -7.410156 C 1230.390625 9.941406 1211.960938 18.894531 1201.050781 33.917969 C 1182.949219 58.96875 1176.730469 91.148438 1187.132812 121.121094 C 1220.210938 216.402344 1132.515625 233.242188 1088.191406 157.851562 C 1079.722656 143.445312 1070.097656 121.855469 1057.359375 115.265625 C 1051.171875 112.0625 1032.574219 124.917969 1026.441406 128.667969 C 978.71875 157.851562 898.574219 114.273438 910.628906 39.570312 C 917.390625 -0.890625 942.691406 -36.351562 987.015625 -60.296875 C 1024.890625 -80.757812 1052.210938 -189.984375 1100.320312 -135.113281 "/></g></g></g></g><g clip-rule="nonzero" clip-path="url(#005cd10319)"><g clip-rule="nonzero" clip-path="url(#84b61cc8df)"><g clip-rule="nonzero" clip-path="url(#ef92681d79)"><g clip-rule="nonzero" clip-path="url(#7d8ec1e1b4)"><path style=" stroke:none;fill-rule:nonzero;fill:#0c228a;fill-opacity:1;" d="M 1066.015625 336.535156 C 1047.984375 303.234375 1042.261719 290.613281 1053.359375 240.578125 C 1058.988281 209.960938 1041.949219 170.273438 1006.851562 170.085938 C 988.960938 170.414062 974.398438 183.011719 957.378906 186.863281 C 929.027344 193.207031 898.929688 186.648438 876.898438 166.550781 C 806.871094 102.652344 759.8125 172.148438 808.492188 238.386719 C 817.792969 251.039062 832.871094 267.359375 833.839844 280.804688 C 834.308594 287.335938 816.3125 298.632812 810.800781 302.539062 C 767.902344 332.933594 775.820312 418.3125 844.8125 435.597656 C 882.265625 444.761719 922.273438 436.058594 959.390625 406.65625 C 991.101562 381.53125 1095.570312 398.433594 1066.015625 336.535156 "/></g></g></g></g><g clip-rule="nonzero" clip-path="url(#c79f08a1d6)"><g clip-rule="nonzero" clip-path="url(#94752dd4da)"><path style=" stroke:none;fill-rule:nonzero;fill:#ffffff;fill-opacity:1;" d="M 692.570312 202.5 L 1214.425781 202.5 L 1214.425781 261.222656 L 692.570312 261.222656 Z M 692.570312 202.5 "/></g></g><g clip-rule="nonzero" clip-path="url(#79b6509f80)"><path style=" stroke:none;fill-rule:nonzero;fill:#2f4299;fill-opacity:1;" d="M 1005.332031 86.710938 C 996.84375 82.730469 989.617188 78.972656 984.796875 71.511719 C 982.210938 67.503906 976.53125 53.398438 964.78125 53.398438 C 958.550781 53.398438 955.265625 54.300781 951.5625 57.265625 C 947.03125 60.890625 945.355469 66.972656 945.976562 72.515625 C 947.242188 83.847656 955.378906 93.347656 965.683594 98.160156 C 976.257812 103.097656 988.523438 103.476562 1000.074219 101.621094 C 1002.957031 101.15625 1006.042969 100.34375 1008.371094 98.523438 C 1010.3125 97.003906 1011.355469 94.5 1010.90625 92.152344 C 1010.308594 89.019531 1007.628906 87.785156 1005.332031 86.710938 Z M 1005.332031 86.710938 "/></g><g clip-rule="nonzero" clip-path="url(#4a890079be)"><g clip-rule="nonzero" clip-path="url(#b1bcc1a22a)"><g clip-rule="nonzero" clip-path="url(#2044dea0e5)"><path style=" stroke:none;fill-rule:nonzero;fill:#2f4299;fill-opacity:1;" d="M 996.441406 39.140625 C 999.816406 43.050781 1004.257812 45.875 1008.769531 48.394531 C 1015.691406 52.257812 1023.179688 55.59375 1031.097656 55.878906 C 1037.828125 56.125 1044.449219 54.144531 1050.699219 51.636719 C 1057.269531 49 1063.636719 45.738281 1069.25 41.417969 C 1081.914062 31.675781 1090.035156 17.148438 1095.84375 2.265625 C 1098.691406 -5.03125 1101.085938 -13.066406 1098.894531 -20.585938 C 1096.085938 -30.210938 1086.695312 -36.179688 1077.839844 -40.878906 C 1068.609375 -45.78125 1058.40625 -50.402344 1048.085938 -48.773438 C 1035.570312 -46.800781 1026.386719 -36.292969 1018.636719 -26.273438 C 1010.109375 -15.246094 1000.949219 -4.019531 993.648438 7.859375 C 987.886719 17.230469 989.332031 30.898438 996.441406 39.140625 Z M 996.441406 39.140625 "/></g></g></g><g clip-rule="nonzero" clip-path="url(#b84ac2a108)"><g clip-rule="nonzero" clip-path="url(#b1718c6f55)"><g clip-rule="nonzero" clip-path="url(#d34e946579)"><path style=" stroke:none;fill-rule:nonzero;fill:#2f4299;fill-opacity:1;" d="M 1120.375 67.238281 C 1123.75 71.148438 1128.195312 73.976562 1132.703125 76.492188 C 1139.625 80.359375 1147.113281 83.695312 1155.035156 83.980469 C 1161.761719 84.222656 1168.382812 82.242188 1174.632812 79.734375 C 1181.203125 77.097656 1187.570312 73.835938 1193.183594 69.519531 C 1205.847656 59.777344 1213.972656 45.246094 1219.78125 30.363281 C 1222.625 23.070312 1225.019531 15.03125 1222.828125 7.515625 C 1220.023438 -2.109375 1210.632812 -8.078125 1201.773438 -12.78125 C 1192.542969 -17.679688 1182.34375 -22.304688 1172.019531 -20.675781 C 1159.503906 -18.699219 1150.320312 -8.195312 1142.570312 1.828125 C 1134.042969 12.851562 1124.882812 24.078125 1117.582031 35.960938 C 1111.820312 45.328125 1113.265625 59 1120.375 67.238281 Z M 1120.375 67.238281 "/></g></g></g><g clip-rule="nonzero" clip-path="url(#512118f61a)"><g clip-rule="nonzero" clip-path="url(#433315194f)"><g clip-rule="nonzero" clip-path="url(#7c85f1c9e4)"><path style=" stroke:none;fill-rule:nonzero;fill:#2f4299;fill-opacity:1;" d="M 1100.441406 90.429688 C 1098.191406 82.96875 1095.519531 72.175781 1089.425781 67.945312 C 1078.769531 60.542969 1059.820312 75.695312 1071.976562 94.765625 C 1076.882812 102.46875 1085.207031 107.902344 1094.234375 109.296875 C 1098.351562 109.933594 1105.367188 109.039062 1106.574219 104.238281 C 1107.902344 98.957031 1101.875 95.125 1100.441406 90.429688 "/></g></g></g></g></svg>